External Loads File
version=1
nRows=94
nColumns=13
Range=5.000000e-03-10 seconds
endheader
time 	forceRightX 	forceRightY 	forceRightZ 	pointRightX 	pointRightY 	pointRightZ 	forceLeftX 	forceLeftY 	forceLeftZ 	pointLeftX 	pointLeftY 	pointLeftZ 		
0.005000 -21.131390 130.891053 -0.000000 0.404675 0.441024 -0.111530 -0.848155 186.540061 -0.000000 0.134296 0.204955 -0.352827
0.010000 -20.573100 131.923753 -0.000000 0.404387 0.441553 -0.111548 1.909191 189.421636 -0.000000 0.134330 0.204525 -0.352831
0.015000 -20.050615 132.925064 -0.000000 0.404095 0.441997 -0.111536 4.497512 192.141258 -0.000000 0.134400 0.204098 -0.352822
0.020000 -19.114405 133.914629 -0.000000 0.403811 0.442532 -0.111560 7.506838 194.527637 -0.000000 0.134482 0.205584 -0.352807
0.025000 -19.302512 134.644975 -0.000000 0.403635 0.442721 -0.111344 8.616849 196.587195 -0.000000 0.134611 0.203132 -0.352808
0.030000 -19.002162 135.337370 -0.000000 0.403287 0.443050 -0.111351 10.040919 198.175622 -0.000000 0.134752 0.202808 -0.352782
0.035000 -18.721410 135.912554 -0.000000 0.402960 0.443485 -0.111341 10.935786 199.299843 -0.000000 0.134915 0.202396 -0.352769
0.040000 -18.369704 136.381042 -0.000000 0.402614 0.443996 -0.111175 11.414223 199.990646 -0.000000 0.135088 0.202010 -0.352756
0.045000 -17.928586 136.749796 -0.000000 0.402242 0.444550 -0.111225 11.555735 200.313825 -0.000000 0.135291 0.201610 -0.352759
0.050000 -17.395865 137.034180 -0.000000 0.401824 0.445115 -0.111264 11.468662 200.353707 -0.000000 0.135516 0.201181 -0.352744
0.055000 -16.795806 137.251490 -0.000000 0.401241 0.445659 -0.111612 11.254476 200.204717 -0.000000 0.135753 0.200755 -0.352750
0.060000 -16.076352 137.423441 -0.000000 0.400809 0.446151 -0.111610 11.104709 199.915458 -0.000000 0.136003 0.200321 -0.352766
0.065000 -15.345215 137.542352 -0.000000 0.400372 0.446647 -0.111645 10.939104 199.503333 -0.000000 0.136292 0.199880 -0.352767
0.070000 -14.628376 137.602566 -0.000000 0.399925 0.447075 -0.111647 10.788347 198.990815 -0.000000 0.136609 0.199449 -0.352821
0.075000 -14.030966 137.595639 -0.000000 0.399432 0.447584 -0.111639 10.545597 198.428142 -0.000000 0.136956 0.198963 -0.352796
0.080000 -13.473109 137.555165 -0.000000 0.398988 0.448055 -0.111642 10.316967 197.843170 -0.000000 0.137300 0.198497 -0.352809
0.085000 -12.956665 137.526710 -0.000000 0.398560 0.448536 -0.111681 10.069015 197.268760 -0.000000 0.137649 0.198102 -0.352834
0.090000 -12.496154 137.558166 -0.000000 0.398072 0.448932 -0.111714 9.761429 196.737943 -0.000000 0.137972 0.197677 -0.352859
0.095000 -12.099066 137.688996 -0.000000 0.397624 0.449337 -0.111740 9.370285 196.261269 -0.000000 0.138306 0.197273 -0.352866
0.100000 -11.786967 137.944136 -0.000000 0.397199 0.449712 -0.111718 8.878843 195.850420 -0.000000 0.138634 0.196851 -0.352862
0.105000 -11.590984 138.332732 -0.000000 0.396825 0.450160 -0.111724 8.297530 195.542566 -0.000000 0.138959 0.196451 -0.352870
0.110000 -11.483566 138.857328 -0.000000 0.396466 0.450526 -0.111755 7.719376 195.369886 -0.000000 0.139276 0.196101 -0.352887
0.115000 -11.490934 139.507113 -0.000000 0.396134 0.450847 -0.111734 7.132471 195.354597 -0.000000 0.139558 0.195710 -0.352912
0.120000 -11.548107 140.262930 -0.000000 0.395804 0.451138 -0.111742 6.629363 195.511654 -0.000000 0.139826 0.195482 -0.352913
0.125000 -11.701724 141.074405 -0.000000 0.395483 0.451419 -0.111743 6.120122 195.838048 -0.000000 0.140088 0.195139 -0.352937
0.130000 -11.888373 141.884090 -0.000000 0.395159 0.451728 -0.111749 5.655219 196.287989 -0.000000 0.140330 0.194849 -0.352962
0.135000 -12.091480 142.629506 -0.000000 0.394873 0.452022 -0.111781 5.234576 196.806030 -0.000000 0.140558 0.194566 -0.352969
0.140000 -12.313787 143.261061 -0.000000 0.394600 0.452299 -0.111806 4.830771 197.335510 -0.000000 0.140788 0.194322 -0.353004
0.145000 -12.555283 143.755863 -0.000000 0.394337 0.452560 -0.111785 4.403526 197.821355 -0.000000 0.141002 0.194097 -0.353012
0.150000 -12.815906 144.128204 -0.000000 0.394081 0.452762 -0.111773 3.930780 198.249372 -0.000000 0.141215 0.193836 -0.353029
0.155000 -13.066419 144.434921 -0.000000 0.393828 0.452952 -0.111780 3.447502 198.651489 -0.000000 0.141433 0.193603 -0.353062
0.160000 -13.258841 144.755554 -0.000000 0.393586 0.453120 -0.111794 2.980309 199.048678 -0.000000 0.141644 0.193374 -0.353084
0.165000 -13.378807 145.153929 -0.000000 0.393347 0.453375 -0.111808 2.492000 199.433116 -0.000000 0.141839 0.193149 -0.353105
0.170000 -13.362138 145.665354 -0.000000 0.393120 0.453578 -0.111835 2.063750 199.803255 -0.000000 0.142046 0.192945 -0.353135
0.175000 -13.200411 146.292086 -0.000000 0.392897 0.453749 -0.111833 1.744691 200.165313 -0.000000 0.142235 0.192761 -0.353150
0.180000 -12.917718 147.018157 -0.000000 0.392669 0.453910 -0.111830 1.536445 200.515584 -0.000000 0.142435 0.192602 -0.353147
0.185000 -12.536334 147.815542 -0.000000 0.392442 0.454072 -0.111834 1.444810 200.868143 -0.000000 0.142620 0.192437 -0.353147
0.190000 -12.084606 148.641332 -0.000000 0.392234 0.454288 -0.111813 1.481421 201.259910 -0.000000 0.142786 0.192293 -0.353148
0.195000 -11.580158 149.443300 -0.000000 0.392032 0.454432 -0.111810 1.664388 201.707672 -0.000000 0.142956 0.192155 -0.353139
0.200000 -11.092709 150.162861 -0.000000 0.391841 0.454579 -0.111814 1.941727 202.207502 -0.000000 0.143125 0.192001 -0.353132
0.205000 -10.649415 150.746667 -0.000000 0.391664 0.454716 -0.111817 2.347697 202.767265 -0.000000 0.143270 0.191883 -0.353141
0.210000 -10.303333 151.152707 -0.000000 0.391496 0.454824 -0.111823 2.870332 203.395160 -0.000000 0.143407 0.191773 -0.353134
0.215000 -10.082874 151.371547 -0.000000 0.391343 0.454955 -0.111820 3.469170 204.082171 -0.000000 0.143535 0.191675 -0.353137
0.220000 -9.960175 151.428985 -0.000000 0.391204 0.455044 -0.111818 4.148469 204.831902 -0.000000 0.143648 0.191564 -0.353145
0.225000 -9.915267 151.366729 -0.000000 0.391085 0.455160 -0.111816 4.902629 205.657504 -0.000000 0.143745 0.191478 -0.353146
0.230000 -9.941993 151.228853 -0.000000 0.390968 0.455254 -0.111813 5.686542 206.527113 -0.000000 0.143828 0.191359 -0.353142
0.235000 -10.017341 151.058905 -0.000000 0.390862 0.455333 -0.111820 6.457199 207.368862 -0.000000 0.143907 0.191293 -0.353150
0.240000 -10.158562 150.896760 -0.000000 0.390773 0.455383 -0.111828 7.128999 208.135177 -0.000000 0.143982 0.191207 -0.353150
0.245000 -10.363515 150.782797 -0.000000 0.390687 0.455448 -0.111811 7.657378 208.811251 -0.000000 0.144056 0.191143 -0.353154
0.250000 -10.615986 150.753814 -0.000000 0.390607 0.455507 -0.111812 8.017699 209.392096 -0.000000 0.144122 0.191078 -0.353155
0.255000 -10.894819 150.836231 -0.000000 0.390555 0.455576 -0.111817 8.212652 209.895509 -0.000000 0.144190 0.191022 -0.353152
0.260000 -11.189927 151.038456 -0.000000 0.390503 0.455623 -0.111802 8.261891 210.360841 -0.000000 0.144251 0.190945 -0.353147
0.265000 -11.485035 151.346835 -0.000000 0.390446 0.455650 -0.111783 8.208269 210.814724 -0.000000 0.144314 0.190915 -0.353143
0.270000 -11.808986 151.726289 -0.000000 0.390410 0.455674 -0.111772 8.052631 211.287300 -0.000000 0.144380 0.190866 -0.353137
0.275000 -12.174123 152.144760 -0.000000 0.390362 0.455708 -0.111764 7.838241 211.830322 -0.000000 0.144448 0.190820 -0.353121
0.280000 -12.553190 152.597973 -0.000000 0.390318 0.455728 -0.111764 7.624203 212.471790 -0.000000 0.144526 0.190779 -0.353119
0.285000 -12.908103 153.109611 -0.000000 0.390267 0.455758 -0.111741 7.419464 213.194285 -0.000000 0.144597 0.190744 -0.353109
0.290000 -13.205517 153.706733 -0.000000 0.390209 0.455804 -0.111741 7.214963 213.977887 -0.000000 0.144697 0.190703 -0.353099
0.295000 -13.410307 154.401053 -0.000000 0.390134 0.455862 -0.111738 7.020523 214.804268 -0.000000 0.144807 0.190641 -0.353081
0.300000 -13.492797 155.195230 -0.000000 0.390051 0.455901 -0.111711 6.833028 215.627300 -0.000000 0.144917 0.190561 -0.353073
0.305000 -13.477944 156.086921 -0.000000 0.389949 0.455962 -0.111673 6.595407 216.409670 -0.000000 0.145051 0.190466 -0.353062
0.310000 -13.368594 157.064965 -0.000000 0.389840 0.456014 -0.111674 6.352323 217.162517 -0.000000 0.145190 0.190362 -0.353079
0.315000 -13.217958 158.100589 -0.000000 0.389717 0.456092 -0.111678 6.114191 217.913186 -0.000000 0.145340 0.190276 -0.353093
0.320000 -13.083313 159.169294 -0.000000 0.389592 0.456188 -0.111647 5.864428 218.676972 -0.000000 0.145493 0.190165 -0.353105
0.325000 -13.003560 160.260770 -0.000000 0.389451 0.456303 -0.111640 5.588105 219.481897 -0.000000 0.145675 0.190045 -0.353110
0.330000 -12.944765 161.372482 -0.000000 0.389309 0.456365 -0.111637 5.342873 220.352213 -0.000000 0.145852 0.189938 -0.353127
0.335000 -12.965722 162.485153 -0.000000 0.389150 0.456468 -0.111637 5.034786 221.283073 -0.000000 0.146061 0.189799 -0.353130
0.340000 -13.035668 163.573300 -0.000000 0.389002 0.456608 -0.111608 4.703052 222.258797 -0.000000 0.146296 0.189666 -0.353133
0.345000 -13.142046 164.609054 -0.000000 0.388836 0.456772 -0.111599 4.367167 223.271520 -0.000000 0.146530 0.189512 -0.353131
0.350000 -13.225058 165.590783 -0.000000 0.388669 0.456913 -0.111600 4.077186 224.297415 -0.000000 0.146780 0.189352 -0.353136
0.355000 -13.247665 166.532890 -0.000000 0.388493 0.457066 -0.111609 3.838374 225.305676 -0.000000 0.147020 0.189182 -0.353153
0.360000 -13.181837 167.435397 -0.000000 0.388320 0.457217 -0.111618 3.672039 226.266097 -0.000000 0.147261 0.189005 -0.353161
0.365000 -13.074049 168.266809 -0.000000 0.388126 0.457363 -0.111618 3.521087 227.128284 -0.000000 0.147524 0.188779 -0.353205
0.370000 -12.949013 168.987430 -0.000000 0.387917 0.457520 -0.111605 3.378174 227.843283 -0.000000 0.147809 0.188548 -0.353222
0.375000 -12.814640 169.565305 -0.000000 0.387701 0.457669 -0.111612 3.289633 228.413237 -0.000000 0.148114 0.188376 -0.353248
0.380000 -12.732540 169.980499 -0.000000 0.387483 0.457869 -0.111582 3.221478 228.871932 -0.000000 0.148421 0.188164 -0.353240
0.385000 -12.641674 170.244884 -0.000000 0.387278 0.458054 -0.111564 3.268368 229.254143 -0.000000 0.148691 0.187955 -0.353248
0.390000 -12.549492 170.384248 -0.000000 0.387086 0.458256 -0.111594 3.427115 229.615568 -0.000000 0.148986 0.187758 -0.353245
0.395000 -12.428693 170.433265 -0.000000 0.386903 0.458448 -0.111588 3.746993 230.009116 -0.000000 0.149272 0.187565 -0.353235
0.400000 -12.304983 170.421893 -0.000000 0.386716 0.458648 -0.111585 4.196519 230.456656 -0.000000 0.149550 0.187341 -0.353244
0.405000 -12.200176 170.381153 -0.000000 0.386525 0.458887 -0.111557 4.736495 230.966027 -0.000000 0.149842 0.187115 -0.353243
0.410000 -12.082478 170.346756 -0.000000 0.386346 0.459083 -0.111546 5.376424 231.530631 -0.000000 0.150127 0.186889 -0.353248
0.415000 -11.968898 170.342793 -0.000000 0.386163 0.459277 -0.111540 6.049866 232.123858 -0.000000 0.150408 0.186700 -0.353236
0.420000 -11.879908 170.368899 -0.000000 0.385983 0.459416 -0.111539 6.725367 232.730721 -0.000000 0.150684 0.186487 -0.353246
0.425000 -11.844523 170.396093 -0.000000 0.385822 0.459564 -0.111552 7.391406 233.349445 -0.000000 0.150928 0.186286 -0.353265
0.430000 -11.928460 170.381856 -0.000000 0.385655 0.459761 -0.111548 7.957646 233.946906 -0.000000 0.151175 0.186096 -0.353281
0.435000 -12.120352 170.299758 -0.000000 0.385504 0.459927 -0.111534 8.398946 234.461717 -0.000000 0.151422 0.185882 -0.353290
0.440000 -12.438927 170.144893 -0.000000 0.385352 0.460160 -0.111545 8.630580 234.858322 -0.000000 0.151695 0.185668 -0.353295
0.445000 -12.770086 169.946253 -0.000000 0.385217 0.460310 -0.111564 8.753875 235.134377 -0.000000 0.151951 0.185480 -0.353288
0.450000 -13.124505 169.738053 -0.000000 0.385066 0.460465 -0.111557 8.743750 235.341396 -0.000000 0.152204 0.185296 -0.353276
0.455000 -13.435553 169.560546 -0.000000 0.384924 0.460613 -0.111549 8.735470 235.568127 -0.000000 0.152439 0.185157 -0.353264
0.460000 -13.695375 169.443957 -0.000000 0.384785 0.460774 -0.111532 8.767226 235.887156 -0.000000 0.152649 0.184990 -0.353239
0.465000 -13.861295 169.416757 -0.000000 0.384645 0.460942 -0.111529 8.878035 236.321199 -0.000000 0.152841 0.184835 -0.353231
0.470000 -13.911929 169.494946 -0.000000 0.384504 0.461058 -0.111520 9.086685 236.888918 -0.000000 0.153029 0.184671 -0.353227
